# xmcd
#
# Track frame offsets: 
#        150
#        15393
#        36642
#        52481
#        76050
#        90626
#        110048
#        125925
#        148350
#        170801
#        191216
#        215931
#        234376
#        250925
#        268175
#        280784
#        297967
#        319656
#
# Disc length: 4509 seconds
#
# Revision: 1
# Processed by: cddbd v1.5.2PL0 Copyright (c) Steve Scherf et al.
# Submitted via: ExactAudioCopy v1.0b4
#
DISCID=2b119b12
DTITLE=Various Artist - Roots and New - 2004
DYEAR=1900
DGENRE=Blues
TTITLE0=Eric Bibb - 99 and 1 - 01-Eric Bibb - 99 and 1_2 won't go
TTITLE1=Rob McCullough - Rob McCullough - Traveling with the blues
TTITLE2=Popa Chubby - Popa Chubby - Top ten Reasons why I can't sleep 
TTITLE2=at night
TTITLE3=Gashouse Dave - Gashouse Dave - It mattered at the time
TTITLE4=BIg Bill Morganfield - BIg Bill Morganfield - Hoochie Coochie 
TTITLE4=Girl
TTITLE5=Galea - Galea - Come on in my kitchen
TTITLE6=Bill Wyman's Rhythm Kings - Bill Wyman's Rhythm Kings - Roll '
TTITLE6=em Pete
TTITLE7=Duke Robillard  - Duke Robillard - Exalted lover
TTITLE8=Neal Black - Neal Black - Dreams are for losers
TTITLE9=Ras Smaïla - Ras Smaïla - Old uncle Tom is gone
TTITLE10=Amar Sundy - Amar Sundy - Men'na
TTITLE11=Lobi Traore - Lobi Traore - Sadiourou
TTITLE12=Manou Gallo - Manou Gallo - Iniyi
TTITLE13=Mason Casey - Mason Casey - Career woman
TTITLE14=Little Bob  - Little Bob - Cool
TTITLE15=Beverly Jo Scott - Beverly Jo Scott - Tennessee Tears
TTITLE16=Patrick Verbeke - Patrick Verbeke - Jo Leblanc
TTITLE17=Kevin Brown - Kevin Brown - Lead on me
EXTD=
EXTT0=
EXTT1=
EXTT2=
EXTT3=
EXTT4=
EXTT5=
EXTT6=
EXTT7=
EXTT8=
EXTT9=
EXTT10=
EXTT11=
EXTT12=
EXTT13=
EXTT14=
EXTT15=
EXTT16=
EXTT17=
PLAYORDER=
